<?xml version="1.0" encoding="UTF-8"?>
<svg xmlns="http://www.w3.org/2000/svg" viewBox="0 0 500 372.61">
  <defs>
    <style>
      .cls-1 {
        fill: #f0f0f0;
      }

      .cls-2, .cls-3, .cls-4, .cls-5, .cls-6 {
        fill: #fff;
      }

      .cls-7, .cls-8, .cls-9, .cls-10, .cls-11 {
        fill: #fafafa;
      }

      .cls-12, .cls-4 {
        opacity: .5;
      }

      .cls-8 {
        opacity: .48;
      }

      .cls-13 {
        opacity: .18;
      }

      .cls-13, .cls-14, .cls-15, .cls-16, .cls-17, .cls-18, .cls-19 {
        fill: #407bff;
      }

      .cls-3, .cls-20 {
        opacity: .4;
      }

      .cls-21, .cls-5 {
        opacity: .6;
      }

      .cls-22 {
        fill: #f5f5f5;
      }

      .cls-23 {
        fill: #cf6f64;
      }

      .cls-24 {
        opacity: .2;
      }

      .cls-25 {
        fill: #e0e0e0;
      }

      .cls-14, .cls-26 {
        opacity: .1;
      }

      .cls-9 {
        opacity: .47;
      }

      .cls-27 {
        fill: #e6e6e6;
      }

      .cls-15 {
        opacity: .14;
      }

      .cls-28 {
        opacity: .3;
      }

      .cls-16 {
        opacity: .19;
      }

      .cls-29 {
        fill: #df5753;
      }

      .cls-17 {
        opacity: .23;
      }

      .cls-10 {
        opacity: .67;
      }

      .cls-30 {
        fill: #e58a7b;
      }

      .cls-11 {
        opacity: .84;
      }

      .cls-19 {
        opacity: .28;
      }

      .cls-31 {
        fill: #263238;
      }

      .cls-6 {
        opacity: .41;
      }
    </style>
  </defs>
  <g id="Background_complete" data-name="Background complete">
    <g>
      <g>
        <rect class="cls-27" y="327.45" width="500" height=".25"/>
        <rect class="cls-27" x="427.32" y="336.1" width="18.53" height=".25"/>
        <rect class="cls-27" x="394.59" y="336.1" width="26.16" height=".25"/>
        <rect class="cls-27" x="330.03" y="336.35" width="19.36" height=".25"/>
        <rect class="cls-27" x="41.58" y="334.08" width="43.19" height=".25"/>
        <rect class="cls-27" x="26.34" y="334.08" width="6.33" height=".25"/>
        <rect class="cls-27" x="101.97" y="341.6" width="62.98" height=".25"/>
        <path class="cls-27" d="m237.01,282.85H43.91c-3.15,0-5.71-2.56-5.71-5.71V5.71c0-3.15,2.56-5.71,5.71-5.71h193.1c3.15,0,5.71,2.56,5.71,5.71v271.43c0,3.15-2.56,5.71-5.71,5.71ZM43.91.25c-3.01,0-5.46,2.45-5.46,5.46v271.43c0,3.01,2.45,5.46,5.46,5.46h193.1c3.01,0,5.46-2.45,5.46-5.46V5.71c0-3.01-2.45-5.46-5.46-5.46H43.91Z"/>
        <path class="cls-27" d="m453.31,282.85h-193.1c-3.15,0-5.71-2.56-5.71-5.71V5.71c0-3.15,2.56-5.71,5.71-5.71h193.1c3.15,0,5.71,2.56,5.71,5.71v271.43c0,3.15-2.56,5.71-5.71,5.71ZM260.21.25c-3.01,0-5.46,2.45-5.46,5.46v271.43c0,3.01,2.45,5.46,5.46,5.46h193.1c3.01,0,5.46-2.45,5.46-5.46V5.71c0-3.01-2.45-5.46-5.46-5.46h-193.1Z"/>
      </g>
      <g>
        <g>
          <rect class="cls-25" x="285.32" y="30.61" width="135.7" height="129.56"/>
          <rect class="cls-22" x="288.33" y="30.61" width="135.7" height="129.56"/>
          <rect class="cls-2" x="297.48" y="32.95" width="117.4" height="124.87" transform="translate(451.57 -260.79) rotate(90)"/>
          <rect class="cls-25" x="358.78" y="94.25" width="117.4" height="2.28" transform="translate(512.87 -322.09) rotate(90)"/>
          <rect class="cls-22" x="290.57" y="117.6" width="131.22" height="8.16"/>
        </g>
        <g>
          <rect class="cls-27" x="226.47" y="264.3" width="26.78" height="59.39"/>
          <rect class="cls-27" x="231.62" y="323.68" width="117.92" height="3.76"/>
          <rect class="cls-7" x="253.26" y="264.3" width="101.42" height="59.39" transform="translate(607.93 587.98) rotate(180)"/>
          <rect class="cls-27" x="263.79" y="271.61" width="80.36" height="19.48" transform="translate(607.93 562.69) rotate(180)"/>
          <rect class="cls-27" x="263.79" y="296.9" width="80.36" height="19.48" transform="translate(607.93 613.27) rotate(180)"/>
          <rect class="cls-7" x="290.74" y="280.01" width="26.45" height="2.67" rx="1.18" ry="1.18"/>
          <rect class="cls-7" x="290.74" y="305.3" width="26.45" height="2.67" rx="1.18" ry="1.18"/>
        </g>
        <g>
          <rect class="cls-27" x="62.37" y="201.46" width="27.32" height="118.47"/>
          <rect class="cls-27" x="67.62" y="319.94" width="134.72" height="7.51"/>
          <rect class="cls-7" x="89.69" y="201.46" width="117.89" height="118.47" transform="translate(297.27 521.4) rotate(180)"/>
          <rect class="cls-27" x="100.43" y="216.05" width="96.41" height="38.86" transform="translate(297.27 470.95) rotate(180)"/>
          <rect class="cls-27" x="100.43" y="266.5" width="96.41" height="38.86" transform="translate(297.27 571.86) rotate(180)"/>
          <path class="cls-7" d="m159.46,238.14h-21.65c-1.47,0-2.66-1.2-2.66-2.66h0c0-1.47,1.2-2.66,2.66-2.66h21.65c1.47,0,2.66,1.2,2.66,2.66h0c0,1.47-1.2,2.66-2.66,2.66Z"/>
          <path class="cls-7" d="m159.46,288.59h-21.65c-1.47,0-2.66-1.2-2.66-2.66h0c0-1.47,1.2-2.66,2.66-2.66h21.65c1.47,0,2.66,1.2,2.66,2.66h0c0,1.47-1.2,2.66-2.66,2.66Z"/>
        </g>
        <g>
          <path class="cls-7" d="m314.99,254.87s-20.12-34.69,7.79-62.3c0,0,7.29,4.75,7.17,11.13-.11,6.38-7.8,8-6.15,13.33,1.65,5.33,8.91,10.56,4.15,14.96s.77,8.33.45,13.72c-.32,5.4-13.41,9.16-13.41,9.16Z"/>
          <path class="cls-27" d="m285.58,244.96s.69,19.33,27.06,19.33,27.06-19.33,27.06-19.33h-54.13Z"/>
          <path class="cls-27" d="m316.52,258.04s8.16-39.26-27.04-56.66c0,0-5.42,6.8-3.3,12.83,2.12,6.02,9.93,5.13,10.04,10.71.11,5.58-5.13,12.83.78,15.5,5.91,2.68,1.9,8.14,3.9,13.16s15.62,4.46,15.62,4.46Z"/>
        </g>
        <g>
          <path class="cls-1" d="m156.05,90.89s.69,11.62,27.06,11.62,27.06-11.62,27.06-11.62h-54.13Z"/>
          <g>
            <g>
              <polygon class="cls-22" points="84.53 110.97 80.2 139.85 84.53 139.85 111.09 110.97 84.53 110.97"/>
              <polygon class="cls-25" points="80.2 110.97 80.2 139.85 106.76 110.97 80.2 110.97"/>
            </g>
            <g>
              <polygon class="cls-22" points="188.7 110.97 184.36 139.85 188.7 139.85 215.26 110.97 188.7 110.97"/>
              <polygon class="cls-25" points="184.36 110.97 184.36 139.85 210.93 110.97 184.36 110.97"/>
            </g>
            <g>
              <rect class="cls-25" x="60.7" y="102.51" width="28.89" height="9.01" transform="translate(150.28 214.03) rotate(180)"/>
              <rect class="cls-22" x="89.59" y="102.51" width="143.63" height="9.01"/>
            </g>
          </g>
          <g>
            <path class="cls-25" d="m119.1,65.49c7.47,1.03,12.08-15.2-4.4-28.94.89,15.9-8.61,27.14,4.4,28.94Z"/>
            <path class="cls-25" d="m124.59,86.74c10.82-7.59,3.42-34.1-30.09-32.18,14.5,19.52,11.21,45.4,30.09,32.18Z"/>
            <path class="cls-25" d="m120.77,86.56c-7.2-7.75,3.05-27.25,28.93-20.13-14.61,12.84-16.39,33.64-28.93,20.13Z"/>
            <path class="cls-22" d="m129.99,75.26c2.49-3.03,5.43-6.44,4.71-10.04-.74-3.64-2.49-6.29-1.08-10.12,1.7-4.6,1.37-10.09-1.5-9.63-2.86.46-6.09,3.82-6,8.28.05,4.32-2.77,5.69-5.42,7.99-2.64,2.28-3.68,5.65-4.15,8.96-.84,5.23-7.6,4.24-9.4,8.78-1.85,4.38,1.85,10.22,7.77,11.56,5.94,1.35,10.14,2.18,14.18-2.44,4.11-4.91-2.79-8.99.89-13.33Z"/>
            <g>
              <polygon class="cls-27" points="109.62 102.51 131.87 102.51 133.55 87.71 107.94 87.71 109.62 102.51"/>
              <rect class="cls-27" x="106.28" y="87.09" width="28.92" height="3.26" transform="translate(241.49 177.45) rotate(180)"/>
            </g>
          </g>
        </g>
        <g>
          <rect class="cls-22" x="157.7" y="185.53" width="24.16" height="15.93"/>
          <rect class="cls-25" x="139.57" y="185.53" width="18.14" height="15.93" transform="translate(297.27 386.99) rotate(180)"/>
        </g>
        <g>
          <rect class="cls-22" x="122.12" y="177.05" width="10.36" height="24.42"/>
          <rect class="cls-25" x="114.34" y="177.05" width="7.78" height="24.42" transform="translate(236.46 378.51) rotate(180)"/>
        </g>
      </g>
    </g>
  </g>
  <g id="Shadow">
    <ellipse class="cls-22" cx="250" cy="361.29" rx="193.89" ry="11.32"/>
  </g>
  <g id="Plant_3" data-name="Plant 3">
    <g>
      <path class="cls-18" d="m157.18,176.87c1.2.52,2.42.87,3.62,1.01,2.57.3,5.1-.26,7.32-1.7,3.43-2.22,5.52-6.11,5.18-9.68-.03-.36-.33-.63-.71-.64-8.65-.11-14.06,4.96-16.26,7.58-.94-4-1.77-8.23-2.37-12.58,2,1.41,3.89,2.22,5.69,2.43.87.1,1.72.07,2.56-.1,4.47-.92,8.04-5.72,11.23-10.76.12-.19.16-.42.1-.62-.06-.2-.2-.37-.4-.45-8.15-3.39-16.79,3.95-19.55,6.61-.42-3.65-.66-7.36-.68-11.06,1.87.58,3.66.98,5.35,1.17,4.39.52,8.08-.25,10.72-2.28,3.13-2.41,4.58-6.39,4.19-11.52-.03-.42-.41-.7-.84-.64-9.28,1.34-16.41,7.29-19.38,10.15.02-.66.04-1.32.08-1.98.01-.18-.05-.33-.13-.46-.36-2.87-1.58-5.07-3.54-6.34-2.32-1.51-5.59-1.71-9.69-.61-.24.07-.45.24-.56.47-.11.23-.1.48.02.69.17.3,3.76,6.35,10.09,7.1.66.08,1.35.09,2.06.04-.08,1.82-.11,3.65-.08,5.48-2.53-2.19-8.08-5.82-16.18-4.63-.22.03-.43.16-.57.34-.14.18-.19.41-.15.62,1.26,6.19,4.31,10.36,8.17,11.14.17.03.35.06.54.09,1.99.23,4.86-.36,8.34-3.67.24,4.28.75,8.52,1.43,12.62-3.36-2.17-11.07-6.14-17.93-2.28-.38.21-.54.67-.36,1.03,2.79,5.64,5.83,8.58,9.31,8.99.03,0,.06,0,.09,0,2.9.31,6.02-1.13,9.51-4.36.79,4.08,1.73,8,2.72,11.64-3.24-2.71-7.38-2.83-12.78-.4-.24.11-.42.33-.48.58-.06.25.01.51.19.68.23.22,4.16,3.98,8.98,4.55,1.72.2,3.56,0,5.39-.93,3.49,11.5,7.16,19.37,7.24,19.52.12.25.35.4.62.44.17.02.35-.01.52-.1.44-.22.63-.74.44-1.15-.09-.18-5.19-11.11-9.05-26.02Z"/>
      <g class="cls-21">
        <path d="m157.18,176.87c1.2.52,2.42.87,3.62,1.01,2.57.3,5.1-.26,7.32-1.7,3.43-2.22,5.52-6.11,5.18-9.68-.03-.36-.33-.63-.71-.64-8.65-.11-14.06,4.96-16.26,7.58-.94-4-1.77-8.23-2.37-12.58,2,1.41,3.89,2.22,5.69,2.43.87.1,1.72.07,2.56-.1,4.47-.92,8.04-5.72,11.23-10.76.12-.19.16-.42.1-.62-.06-.2-.2-.37-.4-.45-8.15-3.39-16.79,3.95-19.55,6.61-.42-3.65-.66-7.36-.68-11.06,1.87.58,3.66.98,5.35,1.17,4.39.52,8.08-.25,10.72-2.28,3.13-2.41,4.58-6.39,4.19-11.52-.03-.42-.41-.7-.84-.64-9.28,1.34-16.41,7.29-19.38,10.15.02-.66.04-1.32.08-1.98.01-.18-.05-.33-.13-.46-.36-2.87-1.58-5.07-3.54-6.34-2.32-1.51-5.59-1.71-9.69-.61-.24.07-.45.24-.56.47-.11.23-.1.48.02.69.17.3,3.76,6.35,10.09,7.1.66.08,1.35.09,2.06.04-.08,1.82-.11,3.65-.08,5.48-2.53-2.19-8.08-5.82-16.18-4.63-.22.03-.43.16-.57.34-.14.18-.19.41-.15.62,1.26,6.19,4.31,10.36,8.17,11.14.17.03.35.06.54.09,1.99.23,4.86-.36,8.34-3.67.24,4.28.75,8.52,1.43,12.62-3.36-2.17-11.07-6.14-17.93-2.28-.38.21-.54.67-.36,1.03,2.79,5.64,5.83,8.58,9.31,8.99.03,0,.06,0,.09,0,2.9.31,6.02-1.13,9.51-4.36.79,4.08,1.73,8,2.72,11.64-3.24-2.71-7.38-2.83-12.78-.4-.24.11-.42.33-.48.58-.06.25.01.51.19.68.23.22,4.16,3.98,8.98,4.55,1.72.2,3.56,0,5.39-.93,3.49,11.5,7.16,19.37,7.24,19.52.12.25.35.4.62.44.17.02.35-.01.52-.1.44-.22.63-.74.44-1.15-.09-.18-5.19-11.11-9.05-26.02Z"/>
      </g>
    </g>
  </g>
  <g id="Computer">
    <g>
      <g>
        <rect class="cls-18" x="168.86" y="153.38" width="256.18" height="163.3" rx="7.19" ry="7.19"/>
        <rect class="cls-21" x="168.86" y="153.38" width="256.18" height="163.3" rx="7.19" ry="7.19"/>
      </g>
      <g>
        <g>
          <path class="cls-18" d="m329.72,361.29h-59.82c5.86-22.1,2.35-45.91-10.52-68.01h59.82c12.87,22.1,16.38,45.91,10.52,68.01Z"/>
          <path class="cls-18" d="m326.6,361.29h-59.82c5.86-22.1,2.35-45.91-10.52-68.01h59.82c12.87,22.1,16.38,45.91,10.52,68.01Z"/>
          <path class="cls-18" d="m328.64,325.02h-60.47c-1.93-10.72-5.9-21.42-11.91-31.74h60.47c6.01,10.32,9.98,21.02,11.91,31.74Z"/>
        </g>
        <g class="cls-20">
          <path d="m329.72,361.29h-59.82c5.86-22.1,2.35-45.91-10.52-68.01h59.82c12.87,22.1,16.38,45.91,10.52,68.01Z"/>
          <path d="m326.6,361.29h-59.82c5.86-22.1,2.35-45.91-10.52-68.01h59.82c12.87,22.1,16.38,45.91,10.52,68.01Z"/>
          <path d="m328.64,325.02h-60.47c-1.93-10.72-5.9-21.42-11.91-31.74h60.47c6.01,10.32,9.98,21.02,11.91,31.74Z"/>
        </g>
        <path class="cls-18" d="m326.6,361.29h-59.82c5.86-22.1,2.35-45.91-10.52-68.01h59.82c12.87,22.1,16.38,45.91,10.52,68.01Z"/>
        <path class="cls-24" d="m326.6,361.29h-59.82c5.86-22.1,2.35-45.91-10.52-68.01h59.82c12.87,22.1,16.38,45.91,10.52,68.01Z"/>
        <path class="cls-24" d="m327.95,325.02h-59.9c-1.91-10.72-5.84-21.42-11.8-31.74h59.9c5.96,10.32,9.89,21.02,11.8,31.74Z"/>
      </g>
      <rect class="cls-18" x="165.46" y="153.38" width="256.18" height="163.3" rx="7.19" ry="7.19"/>
      <rect class="cls-28" x="165.46" y="153.38" width="256.18" height="163.3" rx="7.19" ry="7.19"/>
      <g>
        <path class="cls-18" d="m315.5,356.56h-68.29c-2.61,0-4.73,2.12-4.73,4.73h77.75c0-2.61-2.12-4.73-4.73-4.73Z"/>
        <path class="cls-28" d="m315.5,356.56h-68.29c-2.61,0-4.73,2.12-4.73,4.73h77.75c0-2.61-2.12-4.73-4.73-4.73Z"/>
      </g>
      <rect class="cls-18" x="165.46" y="161.64" width="256.18" height="131.63"/>
      <rect class="cls-11" x="165.37" y="161.64" width="256.18" height="131.63"/>
      <g>
        <rect class="cls-17" x="208.98" y="171.82" width="178.27" height="106.64" rx="2.84" ry="2.84"/>
        <path class="cls-10" d="m386.5,179.16v96.46c0,1.56-1.28,2.84-2.84,2.84h-172.6c-1.56,0-2.84-1.28-2.84-2.84v-96.46h178.27Z"/>
        <rect class="cls-6" x="208.75" y="182.93" width="177.23" height="91.75"/>
        <path class="cls-16" d="m349.79,246.28c-12.99,0-23.55-10.57-23.55-23.55s10.57-23.55,23.55-23.55,23.55,10.56,23.55,23.55-10.56,23.55-23.55,23.55Zm0-46.85c-12.85,0-23.3,10.45-23.3,23.3s10.45,23.3,23.3,23.3,23.3-10.45,23.3-23.3-10.45-23.3-23.3-23.3Z"/>
        <path class="cls-16" d="m310.2,246.28c-12.99,0-23.55-10.57-23.55-23.55s10.57-23.55,23.55-23.55,23.55,10.56,23.55,23.55-10.56,23.55-23.55,23.55Zm0-46.85c-12.85,0-23.3,10.45-23.3,23.3s10.45,23.3,23.3,23.3,23.3-10.45,23.3-23.3-10.45-23.3-23.3-23.3Z"/>
        <path class="cls-16" d="m373.22,259.44h-139.04c-.07,0-.12-.06-.12-.12v-3.88c0-.07.06-.12.12-.12h139.04c.07,0,.12.06.12.12v3.88c0,.07-.06.12-.12.12Zm-138.91-.25h138.79v-3.63h-138.79v3.63Z"/>
        <path class="cls-16" d="m380.97,266.2h-167.21c-.07,0-.12-.06-.12-.12v-74.53c0-.07.06-.12.12-.12h167.21c.07,0,.12.06.12.12v74.53c0,.07-.06.12-.12.12Zm-167.08-.25h166.96v-74.28h-166.96v74.28Z"/>
        <path class="cls-2" d="m378.77,175.51c0,.83.68,1.51,1.51,1.51s1.51-.68,1.51-1.51-.68-1.51-1.51-1.51-1.51.68-1.51,1.51Z"/>
        <circle class="cls-2" cx="374.93" cy="175.51" r="1.51"/>
        <circle class="cls-2" cx="369.58" cy="175.51" r="1.51"/>
        <rect class="cls-18" x="208.23" y="178.97" width="178.27" height=".38"/>
      </g>
      <polygon class="cls-9" points="233.92 161.64 210.4 293.28 233.69 293.28 257.22 161.64 233.92 161.64"/>
      <polygon class="cls-9" points="262.9 161.64 239.38 293.28 251.02 293.28 274.55 161.64 262.9 161.64"/>
      <polygon class="cls-3" points="393.06 161.64 369.53 293.28 375.36 293.28 398.88 161.64 393.06 161.64"/>
      <polygon class="cls-3" points="382.81 161.64 359.28 293.28 365.11 293.28 388.63 161.64 382.81 161.64"/>
      <g>
        <path class="cls-18" d="m331.77,356.56h-12.23c-2.61,0-4.73,2.12-4.73,4.73h21.69c0-2.61-2.12-4.73-4.73-4.73Z"/>
        <path class="cls-20" d="m331.77,356.56h-12.23c-2.61,0-4.73,2.12-4.73,4.73h21.69c0-2.61-2.12-4.73-4.73-4.73Z"/>
      </g>
      <g>
        <path class="cls-18" d="m298.45,305.28c0,2.71-2.19,4.9-4.9,4.9s-4.9-2.19-4.9-4.9,2.19-4.9,4.9-4.9,4.9,2.19,4.9,4.9Z"/>
        <path class="cls-12" d="m298.45,305.28c0,2.71-2.19,4.9-4.9,4.9s-4.9-2.19-4.9-4.9,2.19-4.9,4.9-4.9,4.9,2.19,4.9,4.9Z"/>
      </g>
    </g>
  </g>
  <g id="Plant_2" data-name="Plant 2">
    <g>
      <path class="cls-18" d="m251.68,344.39c-.69-23.95-.63-169.93.76-181.92l1.89-2.61s-.86,2.33-1.08,43.35c-.22,41.03-.49,135.09-.26,141.18h-1.31Z"/>
      <path class="cls-18" d="m262.91,255.6c8.01-13.32,16.76-22.79,23.09-27.96,6.34-5.17-10.28,28.62-16.77,41.21-6.5,12.59-14.51,26.51-17.09,38.27-.5-23.95,2.76-38.19,10.77-51.51Z"/>
      <path class="cls-18" d="m252.3,164.15c1.63-15.14-.58-29.14,7.66-46.87,8.24-17.73,14.51-31.65,22.46-38.12,1.91-1.55-4.62,29.27-12.21,46.63-5.35,12.25-7.08,21.04-12.76,29.26-1.33,1.92-5.16,9.1-5.16,9.1Z"/>
      <path class="cls-18" d="m252.26,244.93c1.66-18.69,3.16-36.68,13.89-63.28,2.61-6.48,26.8-51.77,33.11-56.67,3.1-2.4-7.72,27.69-18.27,53.05-7.91,19.01-11.19,24.43-19.99,46.48-3.47,8.69-8.73,20.42-8.73,20.42Z"/>
      <path class="cls-18" d="m238.18,152.7c-9-12.2-17.7-20.44-24.09-24.74-6.39-4.3,11.03,25.66,19.36,38.73,8.33,13.08,15.93,24.43,19.39,35.77-1.66-23.87-5.66-37.57-14.66-49.77Z"/>
      <path class="cls-18" d="m252.26,278.01c-1.7-12.98-5.2-28.27-10.2-39.59-5-11.32-12.7-28.68-18.82-34.58-1.47-1.42,6.4,32.36,11.46,41.34,5.05,8.98,8.76,17.44,11.94,22.53,1.06,1.69,5.62,10.3,5.62,10.3Z"/>
      <path class="cls-4" d="m251.68,344.39c-.69-23.95-.63-169.93.76-181.92l1.89-2.61s-.86,2.33-1.08,43.35c-.22,41.03-.49,135.09-.26,141.18h-1.31Z"/>
      <path class="cls-4" d="m262.91,255.6c8.01-13.32,16.76-22.79,23.09-27.96,6.34-5.17-10.28,28.62-16.77,41.21-6.5,12.59-14.51,26.51-17.09,38.27-.5-23.95,2.76-38.19,10.77-51.51Z"/>
      <path class="cls-4" d="m252.3,164.15c1.63-15.14-.58-29.14,7.66-46.87,8.24-17.73,14.51-31.65,22.46-38.12,1.91-1.55-4.62,29.27-12.21,46.63-5.35,12.25-7.08,21.04-12.76,29.26-1.33,1.92-5.16,9.1-5.16,9.1Z"/>
      <path class="cls-4" d="m252.26,244.93c1.66-18.69,3.16-36.68,13.89-63.28,2.61-6.48,26.8-51.77,33.11-56.67,3.1-2.4-7.72,27.69-18.27,53.05-7.91,19.01-11.19,24.43-19.99,46.48-3.47,8.69-8.73,20.42-8.73,20.42Z"/>
      <path class="cls-4" d="m238.18,152.7c-9-12.2-17.7-20.44-24.09-24.74-6.39-4.3,11.03,25.66,19.36,38.73,8.33,13.08,15.93,24.43,19.39,35.77-1.66-23.87-5.66-37.57-14.66-49.77Z"/>
      <path class="cls-4" d="m252.26,278.01c-1.7-12.98-5.2-28.27-10.2-39.59-5-11.32-12.7-28.68-18.82-34.58-1.47-1.42,6.4,32.36,11.46,41.34,5.05,8.98,8.76,17.44,11.94,22.53,1.06,1.69,5.62,10.3,5.62,10.3Z"/>
    </g>
    <g>
      <polygon class="cls-31" points="271.3 361.29 233.4 361.29 230.54 339.51 274.16 339.51 271.3 361.29"/>
      <polygon class="cls-31" points="276.98 342.04 227.71 342.04 226.3 334.69 278.39 334.69 276.98 342.04"/>
    </g>
  </g>
  <g id="Ipad">
    <g>
      <g>
        <rect class="cls-18" x="110.21" y="176.61" width="126.73" height="184.67" rx="6.99" ry="6.99"/>
        <rect class="cls-21" x="110.21" y="176.61" width="126.73" height="184.67" rx="6.99" ry="6.99"/>
      </g>
      <g>
        <rect class="cls-18" x="106.86" y="176.61" width="126.73" height="184.67" rx="6.99" ry="6.99"/>
        <rect class="cls-28" x="106.86" y="176.61" width="126.73" height="184.67" rx="6.99" ry="6.99"/>
      </g>
      <rect class="cls-7" x="106.86" y="184.64" width="126.73" height="160.3"/>
      <rect class="cls-14" x="106.86" y="184.64" width="126.73" height="160.3"/>
      <polygon class="cls-8" points="151.79 185.03 122.79 345.34 144.94 345.34 173.94 185.03 151.79 185.03"/>
      <polygon class="cls-8" points="180.52 184.64 151.52 344.95 162.59 344.95 191.59 184.64 180.52 184.64"/>
      <g>
        <circle class="cls-18" cx="170.22" cy="353.01" r="4.76"/>
        <circle class="cls-12" cx="170.22" cy="353.01" r="4.76"/>
      </g>
      <g>
        <path class="cls-18" d="m171.32,180.31c0,.61-.49,1.1-1.1,1.1s-1.1-.49-1.1-1.1.49-1.1,1.1-1.1,1.1.49,1.1,1.1Z"/>
        <path class="cls-12" d="m171.32,180.31c0,.61-.49,1.1-1.1,1.1s-1.1-.49-1.1-1.1.49-1.1,1.1-1.1,1.1.49,1.1,1.1Z"/>
      </g>
    </g>
  </g>
  <g id="Character">
    <g>
      <g>
        <path class="cls-18" d="m328.51,149.09l7.62-1.43c.53-.1.82-.61.65-1.12l-6.01-17.77c-.18-.52-.75-.86-1.29-.76l-7.62,1.43c-.53.1-.82.61-.65,1.12l6.01,17.77c.18.52.75.86,1.29.76Z"/>
        <path class="cls-21" d="m328.51,149.09l7.62-1.43c.53-.1.82-.61.65-1.12l-6.01-17.77c-.18-.52-.75-.86-1.29-.76l-7.62,1.43c-.53.1-.82.61-.65,1.12l6.01,17.77c.18.52.75.86,1.29.76Z"/>
      </g>
      <g>
        <path class="cls-18" d="m329.45,148.91l7.62-1.43c.53-.1.82-.61.65-1.12l-6.01-17.77c-.18-.52-.75-.86-1.29-.76l-7.62,1.43c-.53.1-.82.61-.65,1.12l6.01,17.77c.18.52.75.86,1.29.76Z"/>
        <path class="cls-28" d="m329.45,148.91l7.62-1.43c.53-.1.82-.61.65-1.12l-6.01-17.77c-.18-.52-.75-.86-1.29-.76l-7.62,1.43c-.53.1-.82.61-.65,1.12l6.01,17.77c.18.52.75.86,1.29.76Z"/>
      </g>
      <polygon class="cls-7" points="327.75 146.94 337.31 145.15 331.93 129.21 322.36 130.99 327.75 146.94"/>
      <polygon class="cls-15" points="327.75 146.94 337.31 145.15 331.93 129.21 322.36 130.99 327.75 146.94"/>
    </g>
    <polygon class="cls-30" points="322.36 137.89 323.11 136.14 330.31 144.23 324.08 144.72 322.36 137.89"/>
    <g>
      <circle class="cls-18" cx="199.35" cy="59.71" r="15.43"/>
      <path class="cls-18" d="m199.35,78.01c-1.06,0-2.12-.09-3.16-.27l.17-.99c1.96.34,4.03.34,6,0l.17.99c-1.05.18-2.12.28-3.19.28Zm-9.13-2.44c-1.85-1.07-3.49-2.44-4.87-4.08l.76-.64c1.31,1.55,2.85,2.85,4.6,3.85l-.5.87Zm18.28-.02l-.5-.87c1.75-1.01,3.29-2.31,4.6-3.86l.77.64c-1.38,1.64-3.01,3.01-4.86,4.09Zm-26.34-9.55c-.73-2-1.11-4.1-1.11-6.25h1c0,2.03.36,4.02,1.05,5.91l-.94.34Zm34.38-.03l-.94-.34c.69-1.89,1.04-3.88,1.04-5.91l.68-.05.32.04c0,2.16-.37,4.26-1.1,6.27Zm-33.46-12.13l-.94-.34c.73-2.01,1.79-3.86,3.17-5.5l.77.64c-1.3,1.55-2.31,3.31-2.99,5.2Zm32.5-.1c-.7-1.89-1.72-3.64-3.02-5.18l.76-.65c1.38,1.64,2.46,3.48,3.2,5.48l-.94.35Zm-24.92-8.98l-.5-.86c1.85-1.08,3.86-1.81,5.96-2.19l.17.98c-1.99.35-3.88,1.05-5.63,2.07Zm17.28-.05c-1.75-1.01-3.65-1.69-5.65-2.03l.17-.99c2.11.36,4.12,1.09,5.98,2.15l-.5.87Z"/>
      <g>
        <rect class="cls-18" x="316.39" y="137.74" width="3" height="1"/>
        <path class="cls-18" d="m310.38,138.74h-6.01v-1h6.01v1Zm-12.09-.72c-1.98-.55-3.87-1.4-5.6-2.52l.54-.84c1.64,1.07,3.43,1.88,5.32,2.4l-.27.96Zm-10.17-6.61c-1.31-1.59-2.37-3.37-3.14-5.27l.93-.37c.73,1.81,1.73,3.5,2.98,5.01l-.77.64Zm-4.53-11.25c-.04-.51-.06-1.02-.06-1.54,0-1.54.18-3.08.52-4.58l.97.23c-.33,1.42-.5,2.88-.5,4.35,0,.49.02.98.05,1.47l-1,.08Zm3.62-11.3l-.86-.51c1.05-1.77,2.37-3.36,3.9-4.74l.67.75c-1.46,1.31-2.71,2.82-3.71,4.5Zm8.6-7.69l-.41-.91c1.88-.85,3.87-1.4,5.92-1.64l.12.99c-1.95.23-3.84.75-5.62,1.55Zm24.24-1.69h-.66v-1h.66c1.75,0,3.48-.24,5.15-.7l.27.96c-1.76.49-3.58.74-5.42.74Zm-6.67,0h-6.01v-1h6.01v1Zm17.68-3.28l-.55-.84c1.64-1.07,3.1-2.38,4.34-3.9l.77.63c-1.31,1.59-2.84,2.97-4.57,4.1Zm7.69-9.38l-.93-.37c.72-1.81,1.17-3.73,1.31-5.68l1,.07c-.15,2.06-.62,4.07-1.38,5.98Zm-.08-11.87c-.45-1.9-1.18-3.72-2.19-5.4l.86-.51c1.06,1.77,1.83,3.69,2.3,5.69l-.97.23Zm-5.91-9.9c-1.47-1.3-3.11-2.37-4.9-3.17l.41-.91c1.88.84,3.61,1.96,5.15,3.33l-.66.75Zm-10.52-4.71c-.72-.08-1.46-.12-2.18-.12h-3.77v-1h3.76c.81,0,1.54.04,2.31.13l-.11.99Zm-11.96-.12h-6.01v-1h6.01v1Zm-12.02,0h-6.01v-1h6.01v1Zm-12.02,0h-6.01v-1h6.01v1Zm-12.02,0h-6.01v-1h6.01v1Zm-12.02,0h-6.01v-1h6.01v1Zm-12.02,0h-6.01v-1h6.01v1Zm-12.02,0h-6.01v-1h6.01v1Z"/>
        <rect class="cls-18" x="223.06" y="59.21" width="3" height="1"/>
      </g>
      <g>
        <rect class="cls-18" x="198.93" y="81.27" width=".84" height="2.51"/>
        <path class="cls-18" d="m94.98,247.33h-.84v-5.03h.84v5.03Zm0-10.05h-.84v-5.03h.84v5.03Zm91.27-2.57c-.98,0-1.96-.11-2.91-.31l.18-.82c1.57.34,3.24.39,4.83.12l.14.82c-.74.12-1.49.19-2.24.19Zm-51.54-.02l-.05-.84c1.63-.1,3.21-.51,4.68-1.22l.36.75c-1.57.75-3.25,1.19-4.99,1.3Zm-5.11-.66c-1.65-.55-3.16-1.4-4.49-2.53l.54-.64c1.25,1.06,2.67,1.86,4.21,2.37l-.26.79Zm63.72-1.31l-.44-.71c1.39-.86,2.59-1.96,3.56-3.27l.67.5c-1.04,1.4-2.31,2.57-3.8,3.48Zm-14.71-.37c-1.44-.99-2.65-2.22-3.62-3.67l.7-.46c.91,1.36,2.05,2.52,3.4,3.44l-.47.69Zm-34.78-2.03l-.62-.56c1.11-1.21,1.96-2.6,2.52-4.12l.78.29c-.61,1.63-1.51,3.11-2.69,4.4Zm-21.95-2.84c-.81-1.54-1.31-3.2-1.48-4.94l.83-.08c.16,1.63.63,3.18,1.39,4.63l-.74.39Zm-26.9-.24h-.84v-5.03h.84v5.03Zm104.35-2.65l-.81-.21c.27-1.03.4-2.1.4-3.18v-1.71h.84v1.71c0,1.15-.14,2.29-.43,3.39Zm-26.33-.66c-.18-.89-.28-1.81-.28-2.73v-2.36h.84v2.36c0,.86.09,1.72.26,2.56l-.82.17Zm-25.63-3.08h-.84v-5.03h.84v5.03Zm-26.2-3.37h-.84v-5.03h.84v5.03Zm-26.2-.29h-.84v-5.03h.84v5.03Zm104.78-2.72h-.84v-5.03h.84v5.03Zm-26.2-.65h-.84v-3.54c0-.48-.03-.96-.08-1.43l.83-.09c.06.5.09,1.02.09,1.53v3.54Zm-26.2-3.01h-.84v-.53c0-1.56.26-3.09.79-4.55l.79.28c-.49,1.37-.74,2.8-.74,4.27v.53Zm-27.33-3.26c-.35-1.59-1-3.09-1.92-4.44l.69-.47c.99,1.44,1.68,3.03,2.05,4.73l-.82.18Zm-24.71-.28l-.81-.2c.41-1.69,1.14-3.26,2.16-4.68l.68.49c-.96,1.33-1.64,2.81-2.02,4.39Zm104.42-2.85h-.84v-5.03h.84v5.03Zm-28.56-.19c-.78-1.43-1.81-2.69-3.07-3.73l.53-.64c1.34,1.11,2.45,2.45,3.28,3.98l-.74.4Zm-20.62-2.38l-.62-.56c1.16-1.3,2.54-2.36,4.09-3.13l.37.75c-1.46.73-2.75,1.71-3.84,2.94Zm-35.9-2.14c-1.36-.91-2.86-1.53-4.46-1.86l.17-.82c1.7.35,3.3,1.01,4.76,1.98l-.46.7Zm-13.8-.15l-.45-.71c1.47-.93,3.09-1.56,4.8-1.88l.15.82c-1.6.29-3.12.88-4.5,1.76Zm63-1.38c-1.23-.39-2.52-.59-3.82-.59-.37,0-.66.01-.98.04l-.06-.83c.34-.03.69-.04,1.04-.04h0c1.39,0,2.76.21,4.07.63l-.25.8Zm35.88-3.82h-.84v-5.03h.84v5.03Zm0-10.05h-.84v-5.03h.84v5.03Zm0-10.05h-.84v-5.03h.84v5.03Zm0-10.05h-.84v-5.03h.84v5.03Zm0-10.05h-.84v-5.03h.84v5.03Zm0-10.05h-.84v-5.03h.84v5.03Zm0-10.05h-.84v-5.03h.84v5.03Zm0-10.05h-.84v-5.03h.84v5.03Zm0-10.05h-.84v-5.03h.84v5.03Zm0-10.05h-.84v-5.03h.84v5.03Zm0-10.05h-.84v-5.03h.84v5.03Z"/>
        <rect class="cls-18" x="94.15" y="252.46" width=".84" height="2.51"/>
      </g>
      <path class="cls-2" d="m197.46,67.24c-.38,0-.77-.15-1.06-.44l-5.24-5.24c-.59-.59-.59-1.54,0-2.12.59-.59,1.54-.59,2.12,0l4.18,4.18,7.95-7.95c.59-.59,1.54-.59,2.12,0,.59.59.59,1.54,0,2.12l-9.01,9.01c-.29.29-.68.44-1.06.44Z"/>
      <g>
        <path class="cls-30" d="m385.5,97.16c-.97,4.97-3.18,15.04.3,18.35,0,0-1.36,5.04-10.59,5.04-10.16,0-4.85-5.04-4.85-5.04,5.54-1.32,5.4-5.44,4.43-9.3l10.71-9.06Z"/>
        <g>
          <path class="cls-18" d="m365.28,117.22c.03-.75,1.15-1.52,2.8-2.12.89-.33,1.76-1.58,3.11-1.8,1.02-.17,2.29.68,3.57.59,1.07-.08,2.19-1.12,3.43-1.13,1.09,0,2.24,1.01,3.46,1.07.76.03,1.52-.92,2.16-.86.78.07,1.33,1.15,1.94,1.26.81.14,1.72-.67,2.27-.49.88.28,1,1.47,1.39,1.79,1.12.92,2.02,1.77.98,1.94-2.47.39-2.57-1.02-5.06-1.04-2.49-.02-2.5.98-5,.95-2.5-.02-2.49-1.02-4.98-1.05-2.5-.02-2.46.69-4.95.95-2.55.27-2.66.34-5.13-.05Z"/>
          <g class="cls-21">
            <path d="m365.28,117.22c.03-.75,1.15-1.52,2.8-2.12.89-.33,1.76-1.58,3.11-1.8,1.02-.17,2.29.68,3.57.59,1.07-.08,2.19-1.12,3.43-1.13,1.09,0,2.24,1.01,3.46,1.07.76.03,1.52-.92,2.16-.86.78.07,1.33,1.15,1.94,1.26.81.14,1.72-.67,2.27-.49.88.28,1,1.47,1.39,1.79,1.12.92,2.02,1.77.98,1.94-2.47.39-2.57-1.02-5.06-1.04-2.49-.02-2.5.98-5,.95-2.5-.02-2.49-1.02-4.98-1.05-2.5-.02-2.46.69-4.95.95-2.55.27-2.66.34-5.13-.05Z"/>
          </g>
        </g>
        <path class="cls-30" d="m403.66,126.28c1.3,2.75,2.32,5.38,3.35,8.12.99,2.72,1.86,5.5,2.66,8.29.82,2.79,1.46,5.66,1.98,8.55.25,1.45.49,2.91.66,4.39.1.73.19,1.47.24,2.22l.18,2.3c.06,2.27-.45,4-1.03,5.57-.59,1.56-1.3,2.96-2.04,4.3-1.5,2.66-3.21,5.05-4.98,7.36-3.6,4.57-7.43,8.76-11.66,12.7l-3.11-2.88c1.65-2.18,3.33-4.42,4.91-6.68,1.61-2.24,3.16-4.52,4.59-6.83,1.45-2.3,2.79-4.64,3.89-6.96.54-1.16,1.01-2.32,1.34-3.41.32-1.08.49-2.14.4-2.69l-.25-1.89c-.07-.65-.19-1.3-.31-1.95-.21-1.3-.5-2.61-.79-3.91-.31-1.3-.63-2.6-1-3.9-.34-1.3-.72-2.6-1.12-3.89-.8-2.59-1.7-5.15-2.65-7.7-.92-2.53-1.99-5.12-3.01-7.48l7.76-3.62Z"/>
        <g>
          <path class="cls-18" d="m400.25,117.41c3.48.76,7.2,13.28,7.2,13.28l-13.7,8.74s-4.3-10.04-2.64-14.36c1.73-4.5,5.03-8.56,9.14-7.66Z"/>
          <path class="cls-5" d="m400.25,117.41c3.48.76,7.2,13.28,7.2,13.28l-13.7,8.74s-4.3-10.04-2.64-14.36c1.73-4.5,5.03-8.56,9.14-7.66Z"/>
        </g>
        <path class="cls-19" d="m398.39,121.68l-4.68,17.68s.03.08.03.08l5.48-3.5-.83-14.26Z"/>
        <g>
          <path class="cls-18" d="m356.19,117.66s-3.99,1.41,4,50.56h34.02c-.57-13.85-.59-22.38,6.03-50.8,0,0-7.13-1.55-14.45-1.9-5.72-.28-10.41-.46-15.45,0-6.63.61-14.16,2.15-14.16,2.15Z"/>
          <path class="cls-5" d="m356.19,117.66s-3.99,1.41,4,50.56h34.02c-.57-13.85-.59-22.38,6.03-50.8,0,0-7.13-1.55-14.45-1.9-5.72-.28-10.41-.46-15.45,0-6.63.61-14.16,2.15-14.16,2.15Z"/>
        </g>
        <path class="cls-30" d="m391.5,186.07l-8.1-2.44,3.38,7.82s5.35.51,7.28-2.39l-2.56-2.99Z"/>
        <polygon class="cls-30" points="376.84 186.19 380.02 192.58 386.78 191.45 383.4 183.63 376.84 186.19"/>
        <polygon class="cls-30" points="412.93 356.78 404.55 356.78 401.86 337.38 410.24 337.38 412.93 356.78"/>
        <polygon class="cls-30" points="374.87 356.78 366.5 356.78 365.94 337.38 374.31 337.38 374.87 356.78"/>
        <g>
          <polygon class="cls-23" points="365.94 337.38 366.23 347.38 374.61 347.38 374.32 337.38 365.94 337.38"/>
          <polygon class="cls-23" points="410.24 337.38 401.86 337.38 403.25 347.38 411.63 347.38 410.24 337.38"/>
        </g>
        <g>
          <g>
            <path class="cls-18" d="m369.18,168.21s4.86,57.49,9.9,89.89c4.07,26.17,22.14,87.34,22.14,87.34h11.42s-9.41-59.08-11.48-84.96c-5.23-65.5,3.94-77.09-6.95-92.27h-25.04Z"/>
            <path class="cls-21" d="m369.18,168.21s4.86,57.49,9.9,89.89c4.07,26.17,22.14,87.34,22.14,87.34h11.42s-9.41-59.08-11.48-84.96c-5.23-65.5,3.94-77.09-6.95-92.27h-25.04Z"/>
          </g>
          <path class="cls-20" d="m379.56,190.83s-4.68,14.58-4.61,35.61c.81,7.11,1.67,14.17,2.55,20.71,2.68-6.15,7.61-23.88,2.06-56.32Z"/>
          <g>
            <path class="cls-18" d="m360.2,168.21s-6.61,64.52-6.06,90.07c.57,26.57,10.31,87.17,10.31,87.17h11.33s-1.79-59.04-.79-85.14c1.09-28.45,10.13-92.1,10.13-92.1h-24.91Z"/>
            <path class="cls-21" d="m360.2,168.21s-6.61,64.52-6.06,90.07c.57,26.57,10.31,87.17,10.31,87.17h11.33s-1.79-59.04-.79-85.14c1.09-28.45,10.13-92.1,10.13-92.1h-24.91Z"/>
          </g>
        </g>
        <path class="cls-18" d="m401.17,357.27c-.64,0-1.24-.11-1.6-.44-.28-.26-.39-.61-.33-1.05.05-.33.24-.49.39-.56.97-.44,3.52,1.2,3.81,1.39.07.04.1.12.09.2-.01.08-.07.14-.15.16-.59.14-1.44.3-2.21.3Zm-1.11-1.73c-.1,0-.18.01-.25.05-.07.03-.14.08-.17.25-.04.31.02.54.2.71.42.39,1.52.44,2.98.15-.9-.54-2.12-1.15-2.76-1.15Z"/>
        <path class="cls-18" d="m403.33,356.97s-.07,0-.1-.03c-.8-.45-2.32-2.26-2.13-3.21.04-.18.17-.49.67-.55.32-.04.6.05.84.27.91.81.92,3.22.92,3.32,0,.07-.04.14-.1.17-.03.02-.07.03-.1.03Zm-1.42-3.4s-.06,0-.09,0c-.25.03-.31.14-.33.24-.11.57.83,1.93,1.63,2.57-.05-.8-.23-2.16-.78-2.64-.13-.12-.28-.17-.44-.17Z"/>
        <path class="cls-18" d="m363.06,357.27c-.83,0-1.6-.13-2.03-.52-.27-.25-.39-.57-.36-.97.02-.24.14-.42.34-.53,1.03-.56,4.37,1.14,4.74,1.34.07.04.12.12.1.2-.01.08-.08.15-.16.17-.71.14-1.71.3-2.64.3Zm-1.49-1.73c-.15,0-.28.02-.37.07-.08.04-.12.11-.13.21-.02.27.05.48.23.64.51.46,1.89.54,3.74.23-1.15-.55-2.67-1.15-3.47-1.15Z"/>
        <path class="cls-18" d="m365.66,356.97s-.06,0-.08-.02c-1-.45-2.97-2.26-2.82-3.21.04-.23.2-.5.74-.56.41-.04.78.07,1.1.34,1.05.88,1.25,3.13,1.25,3.23,0,.07-.03.14-.08.18-.03.02-.07.04-.11.04Zm-2-3.4s-.08,0-.12,0c-.36.04-.38.18-.39.23-.09.57,1.25,1.99,2.26,2.61-.1-.66-.38-2.01-1.07-2.58-.21-.17-.43-.26-.69-.26Z"/>
        <path class="cls-31" d="m365.37,88.34c-.13.02-.26-.03-.35-.13-1.17-1.31-2.58-1.12-2.64-1.11-.22.03-.42-.12-.45-.33-.03-.22.11-.42.33-.45.09-.01,1.9-.26,3.35,1.37.15.16.13.41-.03.56-.06.05-.13.09-.21.1Z"/>
        <path class="cls-29" d="m363.63,93.32s-.72,3.04-1.77,4.61c1,.7,2.45.11,2.45.11l-.68-4.72Z"/>
        <path class="cls-31" d="m364.07,92.09c.1.67-.18,1.26-.62,1.32-.44.06-.87-.43-.97-1.1-.1-.67.18-1.26.62-1.32.44-.06.87.43.97,1.1Z"/>
        <path class="cls-31" d="m363.3,91l-1.67-.23s1,1.14,1.67.23Z"/>
        <path class="cls-31" d="m404.04,355.81h9.41c.34,0,.62.24.67.57l1.07,7.45c.11.77-.55,1.5-1.34,1.49-3.28-.06-4.86-.25-9-.25-2.55,0-6.27.26-9.78.26s-3.7-3.48-2.24-3.79c6.56-1.41,7.6-3.36,9.81-5.22.4-.33.9-.51,1.4-.51Z"/>
        <path class="cls-31" d="m366.21,355.81h9.41c.34,0,.62.24.67.57l1.07,7.45c.11.77-.55,1.5-1.34,1.49-3.28-.06-4.86-.25-9-.25-2.55,0-7.81.26-11.33.26s-3.7-3.48-2.24-3.79c6.56-1.41,9.15-3.36,11.36-5.22.4-.33.9-.51,1.4-.51Z"/>
        <path class="cls-19" d="m355.21,125.6v.2c.1,5.59.87,14.99,3.19,30.82l4.74-18.55-7.93-12.47Z"/>
        <path class="cls-30" d="m361.94,128.47c-.95,4.75-2.03,9.4-3.26,14.07-1.22,4.67-2.54,9.3-4.2,13.97l-.65,1.75-.71,1.77c-.09.23-.3.74-.57,1.21-.25.47-.59.96-1.01,1.43-.82.95-2.14,1.78-3.42,2.05-1.29.31-2.41.2-3.34.02-.94-.19-1.72-.49-2.43-.8-1.42-.64-2.56-1.42-3.64-2.21-2.14-1.59-3.91-3.37-5.63-5.17-.86-.9-1.66-1.84-2.44-2.79-.79-.96-1.53-1.9-2.27-2.94l3.17-2.81c3.48,2.98,7.16,6.04,10.85,8.14.91.52,1.83.94,2.62,1.2.77.29,1.46.21,1.19.16-.12-.01-.4.13-.44.18-.03.02-.03.02-.02-.05.02-.05.02-.09.14-.43l.53-1.58.49-1.63c1.3-4.39,2.41-8.96,3.51-13.52l3.13-13.76,8.39,1.74Z"/>
        <path class="cls-30" d="m328.66,151.2l-4.58-6.48,6.24-.48s3.52,4.07,2.27,7.32l-3.92-.35Z"/>
        <polygon class="cls-30" points="328.28 143.05 329.6 142.23 330.21 139.17 331.22 140.43 331.97 147.64 328.28 143.05"/>
        <path class="cls-30" d="m386.22,86.56c.67,8.29,1.14,11.78-2.41,16.59-5.33,7.24-15.65,6.25-18.79-1.66-2.82-7.13-3.45-19.48,4.12-23.9,7.46-4.36,16.4.69,17.08,8.98Z"/>
        <path class="cls-31" d="m367.71,76.66c-6.22,3.08-4.58,8.94-4.58,8.94,0,0,6.51-2.81,6.77,7.62.19,7.52-4.97,17.69-4.97,17.69,0,0,12.07,2.5,29.44-2.82,7.37-2.26,4.03-46.62-26.66-31.43Z"/>
        <path class="cls-31" d="m367.09,81.27c-1.18,2.84-.88,8.46,3.78,7.85,4.65-.61,3.29-5.29,3.29-5.29l-7.07-2.57Z"/>
        <path class="cls-30" d="m372.27,92.49c.08,1.72-.65,3.32-1.62,4.35-1.46,1.55-3.29.5-3.8-1.45-.46-1.76-.25-4.68,1.66-5.5,1.88-.81,3.67.64,3.76,2.61Z"/>
        <polygon class="cls-18" points="413.5 345.82 400.45 345.82 399.06 341.27 413.95 341.62 413.5 345.82"/>
        <g>
          <path class="cls-18" d="m390.1,170.07h.92c.18,0,.32-.09.31-.21l-.43-3.96c-.01-.12-.17-.21-.36-.21h-.92c-.18,0-.32.09-.31.21l.43,3.96c.01.12.17.21.36.21Z"/>
          <path class="cls-18" d="m367.74,170.07h.92c.18,0,.32-.09.31-.21l-.43-3.96c-.01-.12-.17-.21-.36-.21h-.92c-.18,0-.32.09-.31.21l.43,3.96c.01.12.17.21.36.21Z"/>
        </g>
        <polygon class="cls-18" points="376.64 345.82 363.58 345.82 362.64 341.92 377.12 341.27 376.64 345.82"/>
        <g>
          <path class="cls-18" d="m394.73,166.22l1.53,3.05c.12.24-.16.48-.55.48h-35.68c-.31,0-.56-.15-.58-.34l-.31-3.05c-.02-.21.24-.39.58-.39h34.45c.25,0,.48.1.55.26Z"/>
          <path class="cls-26" d="m394.73,166.22l1.53,3.05c.12.24-.16.48-.55.48h-35.68c-.31,0-.56-.15-.58-.34l-.31-3.05c-.02-.21.24-.39.58-.39h34.45c.25,0,.48.1.55.26Z"/>
        </g>
        <g>
          <path class="cls-21" d="m390.1,170.07h.92c.18,0,.32-.09.31-.21l-.43-3.96c-.01-.12-.17-.21-.36-.21h-.92c-.18,0-.32.09-.31.21l.43,3.96c.01.12.17.21.36.21Z"/>
          <path class="cls-21" d="m367.74,170.07h.92c.18,0,.32-.09.31-.21l-.43-3.96c-.01-.12-.17-.21-.36-.21h-.92c-.18,0-.32.09-.31.21l.43,3.96c.01.12.17.21.36.21Z"/>
        </g>
        <g>
          <path class="cls-18" d="m356.19,117.66c-3.45.88-5.87,15.09-5.87,15.09l13.32,9.06s5.32-16.92,2.66-20.71c-2.77-3.95-5.07-4.71-10.11-3.43Z"/>
          <path class="cls-5" d="m356.19,117.66c-3.45.88-5.87,15.09-5.87,15.09l13.32,9.06s5.32-16.92,2.66-20.71c-2.77-3.95-5.07-4.71-10.11-3.43Z"/>
        </g>
      </g>
    </g>
  </g>
  <g id="Plant_1" data-name="Plant 1">
    <g>
      <g>
        <path class="cls-18" d="m167.26,300.88s0-.07,0-.1c.28-1.61.52-3.23.71-4.87,2.83,3.15,5.29,3.95,7.05,3.95.2,0,.38-.01.56-.03,3.45-.34,6.36-3.72,7.8-9.05.05-.2.02-.42-.11-.62s-.31-.33-.53-.39c-7-1.77-12.07.86-14.43,2.55.12-1.54.19-3.09.21-4.63.58.1,1.15.15,1.69.15,5.69,0,9.23-5.07,9.4-5.32.13-.19.15-.43.06-.66-.09-.23-.28-.42-.51-.51-3.56-1.34-6.45-1.46-8.59-.34-1.32.69-2.31,1.85-2.93,3.4-1.69-3.67-6.19-10.68-16.42-12.65-.22-.05-.43.01-.59.14-.15.13-.23.33-.22.55.36,5.17,1.32,11.49,5.58,14.5,1.62,1.14,3.53,1.71,5.8,1.71,1.56,0,3.3-.29,5.21-.84-.07,3.71-.43,7.41-1,11.04-2.37-2.68-8.4-8.66-16.64-10.72-.41-.11-.79.13-.85.54-.61,4.45.45,8.06,3.06,10.44,2.15,1.97,5.25,2.97,9.02,2.97,1.54,0,3.2-.18,4.94-.52-.56,3.04-1.26,6.02-2.03,8.87-2.59-2.06-10.08-7.27-17.22-5.09-.2.06-.35.2-.42.4-.07.19-.05.41.06.61,2.64,4.92,5.28,7.65,8.29,8.6.79.25,1.59.37,2.42.37,1.83,0,3.79-.61,5.99-1.82-1.13,3.77-2.36,7.29-3.58,10.44-2-1.89-7.27-5.77-15.47-3.98-.36.08-.57.42-.49.8.66,3.07,3.21,5.99,6.34,7.27.87.36,2.1.71,3.57.71,1.37,0,2.95-.33,4.62-1.24-2.88,6.91-5.33,11.3-5.39,11.41-.19.34-.05.81.32,1.04.14.09.3.13.44.13.24,0,.46-.11.58-.33.07-.12,3.12-5.62,6.45-14.01.05-.07.08-.15.09-.24.37-.94.74-1.9,1.11-2.91,2.41,2.78,5.33,4.32,8.28,4.32.32,0,.63-.02.95-.05,3.4-.38,6.24-2.84,6.9-5.99.07-.34-.12-.72-.46-.9-6.45-3.37-11.81-1.85-14.53-.57.79-2.29,1.56-4.72,2.27-7.25.06-.1.1-.21.09-.34h0c.2-.71.39-1.42.58-2.15,2.89,3.14,5.56,4.67,8.12,4.67h0c3.12,0,5.99-2.31,8.77-7.05.19-.33.07-.79-.29-1.04-5.81-3.99-12.75-1.27-15.85.33.43-1.87.82-3.78,1.16-5.72,0-.01.02-.02.02-.03Z"/>
        <path class="cls-28" d="m167.26,300.88s0-.07,0-.1c.28-1.61.52-3.23.71-4.87,2.83,3.15,5.29,3.95,7.05,3.95.2,0,.38-.01.56-.03,3.45-.34,6.36-3.72,7.8-9.05.05-.2.02-.42-.11-.62s-.31-.33-.53-.39c-7-1.77-12.07.86-14.43,2.55.12-1.54.19-3.09.21-4.63.58.1,1.15.15,1.69.15,5.69,0,9.23-5.07,9.4-5.32.13-.19.15-.43.06-.66-.09-.23-.28-.42-.51-.51-3.56-1.34-6.45-1.46-8.59-.34-1.32.69-2.31,1.85-2.93,3.4-1.69-3.67-6.19-10.68-16.42-12.65-.22-.05-.43.01-.59.14-.15.13-.23.33-.22.55.36,5.17,1.32,11.49,5.58,14.5,1.62,1.14,3.53,1.71,5.8,1.71,1.56,0,3.3-.29,5.21-.84-.07,3.71-.43,7.41-1,11.04-2.37-2.68-8.4-8.66-16.64-10.72-.41-.11-.79.13-.85.54-.61,4.45.45,8.06,3.06,10.44,2.15,1.97,5.25,2.97,9.02,2.97,1.54,0,3.2-.18,4.94-.52-.56,3.04-1.26,6.02-2.03,8.87-2.59-2.06-10.08-7.27-17.22-5.09-.2.06-.35.2-.42.4-.07.19-.05.41.06.61,2.64,4.92,5.28,7.65,8.29,8.6.79.25,1.59.37,2.42.37,1.83,0,3.79-.61,5.99-1.82-1.13,3.77-2.36,7.29-3.58,10.44-2-1.89-7.27-5.77-15.47-3.98-.36.08-.57.42-.49.8.66,3.07,3.21,5.99,6.34,7.27.87.36,2.1.71,3.57.71,1.37,0,2.95-.33,4.62-1.24-2.88,6.91-5.33,11.3-5.39,11.41-.19.34-.05.81.32,1.04.14.09.3.13.44.13.24,0,.46-.11.58-.33.07-.12,3.12-5.62,6.45-14.01.05-.07.08-.15.09-.24.37-.94.74-1.9,1.11-2.91,2.41,2.78,5.33,4.32,8.28,4.32.32,0,.63-.02.95-.05,3.4-.38,6.24-2.84,6.9-5.99.07-.34-.12-.72-.46-.9-6.45-3.37-11.81-1.85-14.53-.57.79-2.29,1.56-4.72,2.27-7.25.06-.1.1-.21.09-.34h0c.2-.71.39-1.42.58-2.15,2.89,3.14,5.56,4.67,8.12,4.67h0c3.12,0,5.99-2.31,8.77-7.05.19-.33.07-.79-.29-1.04-5.81-3.99-12.75-1.27-15.85.33.43-1.87.82-3.78,1.16-5.72,0-.01.02-.02.02-.03Z"/>
      </g>
      <g>
        <path class="cls-18" d="m130.95,321.15c1.13.34,2.24.52,3.33.52,2.32,0,4.51-.77,6.34-2.28,2.82-2.33,4.27-6.01,3.6-9.16-.07-.32-.36-.53-.7-.49-7.71.81-11.99,5.89-13.68,8.45-1.26-3.46-2.44-7.14-3.43-10.95,1.93,1.04,3.69,1.57,5.32,1.57.79,0,1.54-.12,2.27-.36,3.89-1.29,6.56-5.93,8.87-10.76.09-.18.1-.39.02-.56s-.22-.31-.4-.36c-7.61-2.17-14.53,5.27-16.71,7.93-.75-3.2-1.36-6.48-1.76-9.78,1.73.32,3.36.49,4.89.49,3.96,0,7.17-1.07,9.3-3.15,2.53-2.47,3.41-6.17,2.53-10.69-.07-.37-.44-.58-.81-.48-8.12,2.17-13.85,8.2-16.19,11.06-.05-.59-.1-1.18-.14-1.77,0-.16-.08-.29-.17-.4-.63-2.52-1.94-4.35-3.82-5.27-2.23-1.1-5.15-.94-8.69.47-.21.08-.38.26-.45.47-.07.21-.04.44.09.61.18.24,4.01,5.26,9.72,5.26.59,0,1.21-.06,1.84-.18.12,1.63.28,3.26.5,4.89-2.48-1.68-7.81-4.34-14.89-2.43-.2.05-.37.18-.47.36-.1.18-.13.39-.07.57,1.77,5.38,4.92,8.77,8.43,9.06.16.01.32.02.49.02,1.79,0,4.29-.83,7.04-4.14.66,3.78,1.56,7.5,2.6,11.08-3.22-1.58-10.5-4.3-16.2-.15-.32.23-.41.66-.22.96,3.07,4.73,6.09,7.03,9.23,7.03.03,0,.05,0,.08,0,2.61-.03,5.24-1.63,8.01-4.88,1.13,3.55,2.37,6.94,3.64,10.08-3.16-2.07-6.86-1.74-11.42.98-.2.12-.34.33-.37.57-.03.23.06.45.24.58.23.18,4.12,3.11,8.47,3.11,1.56,0,3.17-.38,4.7-1.39,4.31,9.87,8.4,16.49,8.49,16.62.13.21.36.32.6.32.15,0,.31-.05.45-.14.37-.24.49-.72.27-1.07-.1-.16-5.78-9.34-10.78-22.22Z"/>
        <path class="cls-4" d="m130.95,321.15c1.13.34,2.24.52,3.33.52,2.32,0,4.51-.77,6.34-2.28,2.82-2.33,4.27-6.01,3.6-9.16-.07-.32-.36-.53-.7-.49-7.71.81-11.99,5.89-13.68,8.45-1.26-3.46-2.44-7.14-3.43-10.95,1.93,1.04,3.69,1.57,5.32,1.57.79,0,1.54-.12,2.27-.36,3.89-1.29,6.56-5.93,8.87-10.76.09-.18.1-.39.02-.56s-.22-.31-.4-.36c-7.61-2.17-14.53,5.27-16.71,7.93-.75-3.2-1.36-6.48-1.76-9.78,1.73.32,3.36.49,4.89.49,3.96,0,7.17-1.07,9.3-3.15,2.53-2.47,3.41-6.17,2.53-10.69-.07-.37-.44-.58-.81-.48-8.12,2.17-13.85,8.2-16.19,11.06-.05-.59-.1-1.18-.14-1.77,0-.16-.08-.29-.17-.4-.63-2.52-1.94-4.35-3.82-5.27-2.23-1.1-5.15-.94-8.69.47-.21.08-.38.26-.45.47-.07.21-.04.44.09.61.18.24,4.01,5.26,9.72,5.26.59,0,1.21-.06,1.84-.18.12,1.63.28,3.26.5,4.89-2.48-1.68-7.81-4.34-14.89-2.43-.2.05-.37.18-.47.36-.1.18-.13.39-.07.57,1.77,5.38,4.92,8.77,8.43,9.06.16.01.32.02.49.02,1.79,0,4.29-.83,7.04-4.14.66,3.78,1.56,7.5,2.6,11.08-3.22-1.58-10.5-4.3-16.2-.15-.32.23-.41.66-.22.96,3.07,4.73,6.09,7.03,9.23,7.03.03,0,.05,0,.08,0,2.61-.03,5.24-1.63,8.01-4.88,1.13,3.55,2.37,6.94,3.64,10.08-3.16-2.07-6.86-1.74-11.42.98-.2.12-.34.33-.37.57-.03.23.06.45.24.58.23.18,4.12,3.11,8.47,3.11,1.56,0,3.17-.38,4.7-1.39,4.31,9.87,8.4,16.49,8.49,16.62.13.21.36.32.6.32.15,0,.31-.05.45-.14.37-.24.49-.72.27-1.07-.1-.16-5.78-9.34-10.78-22.22Z"/>
      </g>
      <g>
        <polygon class="cls-31" points="158.5 361.29 134.67 361.29 132.88 336.66 160.3 336.66 158.5 361.29"/>
        <rect class="cls-31" x="131.1" y="334.99" width="30.97" height="4.17"/>
      </g>
    </g>
  </g>
  <g id="Mobile">
    <g>
      <g>
        <rect class="cls-18" x="86.02" y="215.61" width="68.97" height="145.67" rx="6.99" ry="6.99"/>
        <rect class="cls-21" x="86.02" y="215.61" width="68.97" height="145.67" rx="6.99" ry="6.99"/>
      </g>
      <g>
        <rect class="cls-18" x="82.67" y="215.61" width="68.97" height="145.67" rx="6.99" ry="6.99"/>
        <rect class="cls-28" x="82.67" y="215.61" width="68.97" height="145.67" rx="6.99" ry="6.99"/>
      </g>
      <rect class="cls-7" x="82.67" y="223.64" width="68.97" height="125.18"/>
      <rect class="cls-13" x="82.71" y="223.38" width="68.97" height="125.18"/>
      <polygon class="cls-3" points="107.7 223.64 85.33 348.83 107.48 348.83 129.86 223.64 107.7 223.64"/>
      <polygon class="cls-3" points="135.26 223.64 112.89 348.83 123.97 348.83 146.34 223.64 135.26 223.64"/>
      <g>
        <path class="cls-18" d="m120.27,354.61c0,1.72-1.39,3.11-3.11,3.11s-3.11-1.39-3.11-3.11,1.39-3.11,3.11-3.11,3.11,1.39,3.11,3.11Z"/>
        <path class="cls-12" d="m120.27,354.61c0,1.72-1.39,3.11-3.11,3.11s-3.11-1.39-3.11-3.11,1.39-3.11,3.11-3.11,3.11,1.39,3.11,3.11Z"/>
      </g>
      <g>
        <circle class="cls-18" cx="125.31" cy="219.31" r="1.1"/>
        <path class="cls-18" d="m120.82,220.41h-11.8c-.6,0-1.1-.49-1.1-1.1h0c0-.6.49-1.1,1.1-1.1h11.8c.6,0,1.1.49,1.1,1.1h0c0,.6-.49,1.1-1.1,1.1Z"/>
        <circle class="cls-12" cx="125.31" cy="219.31" r="1.1"/>
        <path class="cls-12" d="m120.82,220.41h-11.8c-.6,0-1.1-.49-1.1-1.1h0c0-.6.49-1.1,1.1-1.1h11.8c.6,0,1.1.49,1.1,1.1h0c0,.6-.49,1.1-1.1,1.1Z"/>
      </g>
    </g>
  </g>
</svg>